<svg width="17" height="10" viewBox="0 0 17 10" fill="none" xmlns="http://www.w3.org/2000/svg">
<path d="M5.46325 9.44592L5.71579 9.19342C5.88315 9.02606 5.88315 8.75471 5.71579 8.58731L2.71836 5.60716H16.1429C16.3796 5.60716 16.5715 5.41527 16.5715 5.17859V4.82144C16.5715 4.58476 16.3796 4.39287 16.1429 4.39287H2.71836L5.71579 1.41272C5.88315 1.24536 5.88315 0.974001 5.71579 0.806608L5.46325 0.554107C5.2959 0.386749 5.02454 0.386749 4.85718 0.554107L0.696997 4.69698C0.52964 4.86434 0.52964 5.13569 0.696997 5.30309L4.85718 9.44596C5.02454 9.61332 5.2959 9.61332 5.46325 9.44592V9.44592Z" fill="white"/>
</svg>
